<?xml version="1.0" encoding="utf-8"?>
<!-- Generator: Adobe Illustrator 22.0.0, SVG Export Plug-In . SVG Version: 6.00 Build 0)  -->
<svg version="1.1" id="Layer_1" xmlns="http://www.w3.org/2000/svg" xmlns:xlink="http://www.w3.org/1999/xlink" x="0px" y="0px"
	 viewBox="0 0 91 41" style="enable-background:new 0 0 91 41;" xml:space="preserve">
<style type="text/css">
	.st0{fill:#952839;}
</style>
<g id="XMLID_38_">
	<path id="XMLID_36_" class="st0" d="M33.1,29.8c-0.1-0.1-0.3-0.3-0.6-0.3c-0.2-0.1-0.5-0.1-0.9-0.1c-0.4,0-0.8,0.1-1.1,0.2
		c-0.3,0.1-0.6,0.3-0.9,0.5c-0.2,0.2-0.5,0.4-0.7,0.7c-0.2,0.2-0.3,0.5-0.5,0.7c0,0.1-0.1,0.1-0.1,0.2c0,0.1-0.1,0.1-0.1,0.2
		c0,0.1-0.1,0.1-0.1,0.2c0,0.1-0.1,0.1-0.1,0.2l0-1.6h0c0,0,0,0,0,0l0-0.1c0-0.3-0.1-1-1.3-1l0,0l-0.8,0c-0.1,0-0.1,0-0.1,0
		c0,0-0.1,0-0.1,0c0,0,0,0-0.1,0.1c0,0,0,0.1,0,0.1l0,5.8c0,0,0,0.1,0,0.1c0,0,0,0.1,0.1,0.1c0,0,0,0,0.1,0c0,0,0.1,0,0.1,0h1.8
		c0.1,0,0.1,0,0.1,0c0,0,0.1,0,0.1,0c0,0,0,0,0.1-0.1c0,0,0-0.1,0-0.1c0-0.2,0-0.4,0-0.6c0-0.2,0-0.3,0-0.5c0-0.2,0.1-0.3,0.1-0.5
		c0-0.2,0.1-0.3,0.1-0.5c0-0.1,0.1-0.2,0.1-0.3c0.1-0.1,0.1-0.2,0.2-0.3c0.1-0.1,0.1-0.2,0.2-0.3c0.1-0.1,0.2-0.2,0.3-0.4
		c0,0,0,0,0.1-0.1c0,0,0-0.1,0.1-0.1c0,0,0.1-0.1,0.1-0.1c0,0,0.1-0.1,0.1-0.1c0.1-0.1,0.1-0.1,0.2-0.2c0.1-0.1,0.1-0.1,0.2-0.2
		c0.1-0.1,0.2-0.1,0.3-0.1c0.1,0,0.2,0,0.3,0c0.1,0,0.1,0,0.2,0c0,0,0.1,0,0.1,0.1c0,0,0.1,0.1,0.1,0.1c0,0,0,0.1,0,0.1c0,0,0,0,0,0
		c0,0,0,0,0,0c0,0,0,0,0,0l0,0.1l0,3.8c0,0,0,0.1,0,0.1c0,0,0,0.1,0.1,0.1c0,0,0.1,0,0.1,0c0,0,0.1,0,0.1,0h1.8c0.1,0,0.1,0,0.1,0
		c0,0,0.1,0,0.1,0c0,0,0,0,0.1-0.1c0,0,0-0.1,0-0.1l0-4.6c0-0.2-0.1-0.4-0.1-0.6C33.4,30.2,33.3,30,33.1,29.8z"/>
	<path id="XMLID_35_" class="st0" d="M41.2,29.6C41.2,29.6,41.1,29.5,41.2,29.6c-0.1,0-0.2-0.1-0.2-0.1h-2.7l0-0.5
		c0-0.3-0.1-0.9-1.1-1l-0.9,0c-0.1,0-0.1,0-0.1,0c0,0-0.1,0-0.1,0c0,0,0,0-0.1,0.1c0,0,0,0.1,0,0.1l0,1.2l-0.9,0c-0.1,0-0.1,0-0.1,0
		c0,0-0.1,0-0.1,0c0,0,0,0-0.1,0.1c0,0,0,0.1,0,0.1c0,0,0,0,0,0c0,0,0,0,0,0c0,0,0,0,0,0c0,0,0,0,0,0c0,0,0,0,0,0.1c0,0,0,0,0,0.1
		c0,0,0,0,0,0c0,0,0,0,0,0c0,0,0,0,0,0c0,0,0,0,0,0c0,0,0,0,0,0c0,0,0,0,0,0c0,0,0,0,0,0c0,0,0,0,0,0.1c0,0,0,0,0,0.1c0,0,0,0,0,0
		c0,0,0,0.1,0,0.1c0,0,0,0.1,0,0.1c0,0,0,0.1,0,0.1c0,0,0,0,0.1,0.1c0,0,0.1,0,0.1,0c0,0,0.1,0,0.1,0h0.9l0,3.6
		c0,0.3,0.1,0.6,0.2,0.8c0.1,0.2,0.3,0.4,0.6,0.5c0.3,0.1,0.6,0.2,0.9,0.3c0.3,0.1,0.7,0.1,1.1,0.1c0.1,0,0.1,0,0.2,0
		c0.1,0,0.2,0,0.3,0c0.1,0,0.3,0,0.4,0s0.3,0,0.4,0c0.2,0,0.3,0,0.5-0.1c0.2,0,0.3-0.1,0.5-0.1c0.1,0,0.3-0.1,0.3-0.2
		c0.1-0.1,0.1-0.1,0.1-0.2c0,0,0,0,0,0c0,0,0,0,0,0c0,0,0,0,0,0c0,0,0,0,0,0c0,0,0,0,0,0c0,0,0,0,0,0c0,0,0,0,0,0c0,0,0,0,0,0
		c0,0,0,0,0,0c0,0,0,0,0,0c0,0,0,0,0,0c0,0,0,0,0,0c0,0,0,0,0,0c0,0,0,0,0,0c0,0,0-0.1,0-0.1c0,0,0-0.1,0-0.1c0,0,0,0,0,0
		c0,0,0,0,0-0.1c0,0,0,0,0,0c0,0,0,0,0,0c0,0,0,0,0-0.1c0,0,0,0,0-0.1c0,0,0,0-0.1,0c0,0-0.1,0-0.1,0c-0.1,0-0.2,0.1-0.4,0.1
		c-0.1,0-0.2,0.1-0.4,0.1c-0.1,0-0.1,0-0.2,0c-0.1,0-0.1,0-0.2,0c-0.1,0-0.1,0-0.2,0c-0.1,0-0.1,0-0.2,0c-0.2,0-0.4,0-0.6-0.1
		c-0.2,0-0.3-0.1-0.4-0.2c-0.1-0.1-0.2-0.2-0.2-0.3c-0.1-0.1-0.1-0.3-0.1-0.4v-3l2.7,0c0.1,0,0.1,0,0.1,0c0,0,0.1,0,0.1,0
		c0,0,0.1,0,0.1-0.1c0,0,0-0.1,0-0.1l0-0.8C41.3,29.7,41.3,29.7,41.2,29.6C41.2,29.6,41.2,29.6,41.2,29.6z"/>
	<path id="XMLID_79_" class="st0" d="M48.1,29.7c-0.3-0.1-0.6-0.2-0.9-0.3c-0.3-0.1-0.7-0.1-1.1-0.1c-0.7,0-1.3,0.1-1.8,0.3
		s-1,0.4-1.3,0.8c-0.4,0.3-0.6,0.7-0.8,1.1c-0.2,0.4-0.3,0.8-0.4,1.2c0,0,0,0.1,0,0.1c0,0,0,0.1,0,0.1c0,0,0,0.1,0,0.1
		c0,0,0,0.1,0,0.1c0,0.1,0,0.1,0,0.2c0,0.1,0,0.1,0,0.2c0,0.4,0.1,0.8,0.3,1.1c0.2,0.3,0.4,0.6,0.8,0.8c0.3,0.2,0.7,0.4,1.2,0.5
		c0.5,0.1,1,0.1,1.6,0.1c0.1,0,0.2,0,0.3,0c0.1,0,0.2,0,0.4,0c0.1,0,0.3,0,0.4,0c0.1,0,0.3,0,0.4,0c0.2,0,0.4,0,0.6-0.1
		c0.2,0,0.4-0.1,0.5-0.1c0.2,0,0.3-0.1,0.4-0.2c0.1-0.1,0.1-0.1,0.1-0.2l0-0.8c0,0,0,0,0-0.1c0,0,0,0,0-0.1c0,0,0,0-0.1,0
		c0,0-0.1,0-0.1,0c0,0,0,0-0.1,0c0,0-0.1,0-0.2,0.1c0,0-0.1,0-0.1,0c0,0-0.1,0-0.1,0c0,0-0.1,0-0.1,0c0,0-0.1,0-0.2,0
		c0,0-0.1,0-0.1,0c0,0-0.1,0-0.1,0c0,0-0.1,0-0.1,0c0,0-0.1,0-0.1,0c0,0-0.1,0-0.1,0c0,0-0.1,0-0.1,0c0,0-0.1,0-0.1,0
		c0,0-0.1,0-0.1,0c0,0,0,0-0.1,0c0,0,0,0-0.1,0c0,0,0,0-0.1,0c0,0,0,0-0.1,0c-0.1,0-0.1,0-0.1,0c0,0-0.1,0-0.1,0
		c-0.3,0-0.6,0-0.9-0.1c-0.3-0.1-0.5-0.1-0.7-0.3c-0.2-0.1-0.3-0.3-0.5-0.4c-0.1-0.2-0.2-0.4-0.2-0.6c0,0,0,0,0,0l0,0c0,0,0,0,0,0
		c0.1,0,0.2,0,0.3,0c0.1,0,0.2,0,0.3,0c0.1,0,0.1,0,0.2,0c0.1,0,0.1,0,0.2,0c0,0,0.1,0,0.2,0c0.1,0,0.1,0,0.2,0
		c0.5,0,0.9-0.1,1.3-0.2c0.4-0.1,0.8-0.3,1.2-0.4c0.4-0.2,0.7-0.4,0.8-0.7c0.2-0.3,0.3-0.6,0.2-1c0-0.3-0.1-0.5-0.3-0.7
		C48.5,30,48.3,29.8,48.1,29.7z M46.7,31.5c-0.1,0.1-0.2,0.2-0.4,0.3c-0.2,0.1-0.4,0.1-0.5,0.2c-0.2,0-0.4,0.1-0.6,0.1
		c-0.1,0-0.2,0-0.3,0c-0.1,0-0.2,0-0.3,0c-0.1,0-0.2,0-0.3,0s-0.2,0-0.2,0c0,0,0,0,0,0l0,0c0,0,0,0,0,0c0,0,0,0,0-0.1
		c0,0,0-0.1,0-0.1c0,0,0-0.1,0-0.1c0,0,0-0.1,0-0.1c0-0.2,0.1-0.3,0.2-0.5c0.1-0.1,0.2-0.3,0.3-0.4c0.1-0.1,0.3-0.2,0.5-0.3
		c0.2-0.1,0.4-0.1,0.7-0.1c0.1,0,0.3,0,0.4,0c0.1,0,0.2,0.1,0.3,0.1c0.1,0.1,0.1,0.1,0.2,0.2c0,0.1,0.1,0.2,0.1,0.3
		C46.8,31.3,46.7,31.4,46.7,31.5z"/>
	<path id="XMLID_32_" class="st0" d="M56.4,29.5c-0.1,0-0.1,0-0.2-0.1c-0.1,0-0.2,0-0.2,0c0,0,0,0,0,0c0,0,0,0-0.1,0c0,0,0,0,0,0
		c0,0,0,0,0,0c0,0,0,0-0.1,0c0,0,0,0,0,0c0,0,0,0,0,0c0,0,0,0,0,0c-0.4,0-0.7,0-1,0.1c-0.3,0.1-0.5,0.2-0.7,0.4
		c-0.2,0.2-0.4,0.4-0.5,0.6c-0.2,0.2-0.3,0.4-0.4,0.6c0,0.1-0.1,0.2-0.1,0.3c0,0.1-0.1,0.2-0.1,0.3c0,0.1,0,0.2-0.1,0.2
		c0,0.1,0,0.2-0.1,0.2l0-1.7c0-0.3-0.2-1-1.2-1l-0.9,0c-0.1,0-0.1,0-0.1,0c0,0-0.1,0-0.1,0c0,0,0,0-0.1,0.1c0,0,0,0.1,0,0.1l0,5.8
		c0,0,0,0.1,0,0.1c0,0,0,0.1,0.1,0.1c0,0,0,0,0.1,0c0,0,0.1,0,0.1,0h1.8c0.1,0,0.1,0,0.1,0c0,0,0.1,0,0.1,0c0,0,0,0,0.1-0.1
		c0,0,0-0.1,0-0.1c0-0.2,0-0.3,0-0.5c0-0.2,0-0.3,0-0.4c0-0.1,0-0.3,0-0.4c0-0.1,0-0.3,0.1-0.4c0-0.1,0.1-0.2,0.1-0.3
		c0-0.1,0.1-0.2,0.1-0.3c0.1-0.1,0.1-0.2,0.2-0.3c0.1-0.1,0.1-0.2,0.2-0.4c0,0,0,0,0,0c0,0,0,0,0,0c0,0,0-0.1,0-0.1
		c0,0,0-0.1,0.1-0.1c0,0,0,0,0-0.1c0,0,0,0,0-0.1c0,0,0,0,0-0.1c0,0,0,0,0-0.1c0.1-0.1,0.2-0.2,0.3-0.4c0.1-0.1,0.2-0.2,0.4-0.3
		c0.1-0.1,0.3-0.2,0.4-0.2c0.2-0.1,0.4-0.1,0.6-0.1c0,0,0,0,0.1,0c0,0,0,0,0.1,0c0,0,0,0,0.1,0c0,0,0,0,0.1,0c0,0,0,0,0,0
		c0,0,0,0,0,0c0,0,0,0,0,0c0,0,0,0,0,0c0,0,0,0,0.1,0c0,0,0,0,0.1,0c0,0,0,0,0.1,0c0,0,0.1,0,0.1,0c0,0,0,0,0,0c0,0,0,0,0,0
		c0,0,0,0,0.1,0c0,0,0.1,0,0.1,0c0,0,0,0,0,0c0,0,0,0,0,0c0,0,0.1,0,0.1,0c0,0,0.1,0,0.1,0c0,0,0,0,0-0.1c0,0,0,0,0-0.1l0,0
		c0,0,0,0,0,0l0-1.2c0-0.1,0-0.1-0.1-0.2C56.6,29.6,56.5,29.5,56.4,29.5z"/>
	<path id="XMLID_75_" class="st0" d="M65.8,31.4C65.8,31.4,65.8,31.4,65.8,31.4c0-0.1,0-0.1,0-0.1c0-0.2-0.1-0.5-0.2-0.7
		c-0.1-0.2-0.2-0.4-0.4-0.6c-0.2-0.2-0.4-0.3-0.7-0.4c-0.3-0.1-0.7-0.2-1.1-0.2c-0.4,0-0.8,0.1-1.2,0.2c-0.3,0.1-0.6,0.3-0.9,0.5
		c-0.2,0.2-0.5,0.4-0.6,0.7c-0.2,0.2-0.3,0.5-0.5,0.7c0,0.1-0.1,0.1-0.1,0.2c0,0.1-0.1,0.1-0.1,0.2c0,0.1-0.1,0.1-0.1,0.2
		c0,0.1,0,0.1-0.1,0.1l0-1.6c0-0.3-0.2-0.9-1.2-0.9l-0.9,0c-0.1,0-0.1,0-0.1,0c0,0-0.1,0-0.1,0c0,0,0,0-0.1,0.1c0,0,0,0.1,0,0.1
		l0,8.3c0,0,0,0.1,0,0.1c0,0,0,0,0.1,0.1c0,0,0,0,0.1,0c0,0,0.1,0,0.2,0l1.8,0c0.1,0,0.1,0,0.1,0c0,0,0.1,0,0.1,0c0,0,0,0,0.1-0.1
		c0,0,0-0.1,0-0.1l0-2.4c0.1,0,0.2,0.1,0.3,0.1s0.2,0,0.3,0.1c0.1,0,0.2,0,0.3,0c0.1,0,0.2,0,0.3,0c0,0,0,0,0,0c0,0,0,0,0,0
		c0,0,0,0,0,0c0,0,0,0,0,0c0,0,0,0,0.1,0s0.1,0,0.1,0c0.6,0,1.1-0.1,1.5-0.2c0.5-0.1,0.8-0.4,1.2-0.7c0.3-0.3,0.6-0.6,0.8-1
		c0.2-0.3,0.4-0.7,0.5-1c0-0.1,0-0.1,0-0.2c0-0.1,0-0.1,0-0.2c0,0,0-0.1,0-0.1c0-0.1,0-0.1,0-0.2c0-0.1,0-0.2,0-0.3
		c0-0.1,0-0.2,0-0.3c0,0,0-0.1,0-0.1c0,0,0-0.1,0-0.1C65.8,31.5,65.8,31.5,65.8,31.4C65.8,31.4,65.8,31.4,65.8,31.4z M63.4,31.7
		C63.4,31.7,63.4,31.7,63.4,31.7C63.4,31.7,63.4,31.7,63.4,31.7C63.4,31.7,63.4,31.8,63.4,31.7c0,0.1,0,0.1,0,0.1c0,0,0,0.1,0,0.1
		c0,0,0,0.1,0,0.1c0,0,0,0.1,0,0.1c0,0,0,0.1,0,0.1c0,0,0,0,0,0.1c0,0,0,0,0,0.1c0,0.1,0,0.1,0,0.1c0,0,0,0.1,0,0.1
		c0,0.3-0.1,0.5-0.2,0.8c-0.1,0.2-0.2,0.5-0.4,0.7c-0.2,0.2-0.4,0.4-0.7,0.5c-0.3,0.1-0.7,0.2-1.1,0.2c0,0,0,0-0.1,0c0,0,0,0,0,0
		c0,0,0,0,0,0s0,0,0,0c0,0,0,0,0,0c0,0,0,0,0,0c0,0,0,0,0,0c0,0,0,0,0,0c-0.1,0-0.1,0-0.2,0c-0.1,0-0.1,0-0.2,0c-0.1,0-0.1,0-0.2,0
		c0,0-0.1,0-0.1,0c0,0,0,0,0,0l0,0c0,0,0,0,0,0c0-0.3,0.1-0.6,0.2-0.8c0.1-0.3,0.2-0.5,0.4-0.8c0.1-0.2,0.3-0.5,0.5-0.7
		c0.2-0.2,0.4-0.5,0.6-0.7c0,0,0,0,0,0c0,0,0,0,0,0c0,0,0,0,0-0.1c0,0,0,0,0.1,0c0.1-0.1,0.1-0.1,0.2-0.2c0.1,0,0.1-0.1,0.2-0.1
		c0.1,0,0.2-0.1,0.3-0.1c0.1,0,0.2,0,0.3,0c0.1,0,0.2,0,0.3,0c0.1,0,0.1,0.1,0.2,0.1c0,0.1,0.1,0.1,0.1,0.2
		C63.3,31.5,63.4,31.5,63.4,31.7C63.4,31.6,63.4,31.6,63.4,31.7C63.4,31.6,63.4,31.7,63.4,31.7C63.4,31.7,63.4,31.7,63.4,31.7z"/>
	<path id="XMLID_29_" class="st0" d="M73.3,29.5c-0.1,0-0.1,0-0.2-0.1c-0.1,0-0.2,0-0.2,0c0,0,0,0,0,0c0,0,0,0-0.1,0c0,0,0,0,0,0
		c0,0,0,0,0,0c0,0,0,0-0.1,0c0,0,0,0,0,0c0,0,0,0,0,0c0,0,0,0,0,0c-0.4,0-0.7,0-1,0.1c-0.3,0.1-0.5,0.2-0.7,0.4
		c-0.2,0.2-0.4,0.4-0.5,0.6c-0.2,0.2-0.3,0.4-0.4,0.6c0,0.1-0.1,0.2-0.1,0.3c0,0.1-0.1,0.2-0.1,0.3c0,0.1,0,0.2-0.1,0.2
		c0,0.1,0,0.2-0.1,0.2l0-1.7c0-0.3-0.2-0.9-1.3-0.9l-0.9,0c-0.1,0-0.1,0-0.1,0c0,0-0.1,0-0.1,0c0,0,0,0-0.1,0.1c0,0,0,0.1,0,0.1
		l0,5.8c0,0,0,0.1,0,0.1c0,0,0,0.1,0.1,0.1c0,0,0,0,0.1,0c0,0,0.1,0,0.1,0h1.8c0.1,0,0.1,0,0.1,0c0,0,0.1,0,0.1,0c0,0,0,0,0.1-0.1
		c0,0,0-0.1,0-0.1c0-0.2,0-0.3,0-0.5c0-0.2,0-0.3,0-0.4c0-0.1,0-0.3,0-0.4c0-0.1,0-0.3,0.1-0.4c0-0.1,0.1-0.2,0.1-0.3
		c0-0.1,0.1-0.2,0.1-0.3c0.1-0.1,0.1-0.2,0.2-0.3c0.1-0.1,0.1-0.2,0.2-0.4c0,0,0,0,0,0c0,0,0,0,0,0c0,0,0-0.1,0-0.1
		c0,0,0-0.1,0.1-0.1c0,0,0,0,0-0.1c0,0,0,0,0-0.1c0,0,0,0,0-0.1c0,0,0,0,0-0.1c0.1-0.1,0.2-0.2,0.3-0.4c0.1-0.1,0.2-0.2,0.4-0.3
		c0.1-0.1,0.3-0.2,0.4-0.2c0.2-0.1,0.4-0.1,0.6-0.1c0,0,0,0,0.1,0c0,0,0,0,0.1,0c0,0,0,0,0.1,0c0,0,0,0,0.1,0c0,0,0,0,0,0
		c0,0,0,0,0,0c0,0,0,0,0,0c0,0,0,0,0,0c0,0,0,0,0.1,0c0,0,0,0,0.1,0c0,0,0,0,0.1,0c0,0,0.1,0,0.1,0c0,0,0,0,0,0c0,0,0,0,0,0
		c0,0,0,0,0.1,0c0,0,0.1,0,0.1,0c0,0,0,0,0,0c0,0,0,0,0,0c0,0,0.1,0,0.1,0c0,0,0.1,0,0.1,0c0,0,0,0,0-0.1c0,0,0,0,0-0.1l0,0
		c0,0,0,0,0,0l0-1.2c0-0.1,0-0.1-0.1-0.2C73.4,29.6,73.4,29.5,73.3,29.5z"/>
	<path id="XMLID_71_" class="st0" d="M80.2,29.7c-0.3-0.1-0.5-0.2-0.9-0.3c-0.3-0.1-0.7-0.1-1.1-0.1c-0.7,0-1.3,0.1-1.8,0.3
		c-0.5,0.2-1,0.4-1.3,0.8c-0.4,0.3-0.6,0.7-0.8,1.1c-0.2,0.4-0.3,0.8-0.4,1.2c0,0,0,0.1,0,0.1c0,0,0,0.1,0,0.1c0,0,0,0.1,0,0.1
		c0,0,0,0.1,0,0.1c0,0.1,0,0.1,0,0.2c0,0.1,0,0.1,0,0.2c0,0.4,0.1,0.8,0.3,1.1c0.2,0.3,0.4,0.6,0.8,0.8c0.3,0.2,0.7,0.4,1.2,0.5
		c0.5,0.1,1,0.1,1.6,0.1c0.1,0,0.2,0,0.3,0c0.1,0,0.2,0,0.4,0c0.1,0,0.3,0,0.4,0c0.1,0,0.3,0,0.4,0c0.2,0,0.4,0,0.6-0.1
		c0.2,0,0.4-0.1,0.5-0.1c0.2,0,0.3-0.1,0.4-0.2c0.1-0.1,0.1-0.1,0.1-0.2v-0.8c0,0,0,0,0-0.1c0,0,0,0,0-0.1c0,0,0,0-0.1,0
		c0,0-0.1,0-0.1,0c0,0,0,0-0.1,0c0,0-0.1,0-0.2,0.1c0,0-0.1,0-0.1,0c0,0-0.1,0-0.1,0c0,0-0.1,0-0.1,0c0,0-0.1,0-0.2,0
		c0,0-0.1,0-0.1,0c0,0-0.1,0-0.1,0c0,0-0.1,0-0.1,0c0,0-0.1,0-0.1,0c0,0-0.1,0-0.1,0c0,0-0.1,0-0.1,0c0,0-0.1,0-0.1,0
		c0,0-0.1,0-0.1,0c0,0,0,0-0.1,0c0,0,0,0-0.1,0c0,0,0,0-0.1,0c0,0,0,0-0.1,0c-0.1,0-0.1,0-0.1,0s-0.1,0-0.1,0c-0.3,0-0.6,0-0.9-0.1
		c-0.3-0.1-0.5-0.1-0.7-0.3c-0.2-0.1-0.3-0.3-0.5-0.4c-0.1-0.2-0.2-0.4-0.2-0.6c0,0,0,0,0,0l0,0c0,0,0,0,0,0c0.1,0,0.2,0,0.3,0
		c0.1,0,0.2,0,0.3,0c0.1,0,0.1,0,0.2,0c0.1,0,0.1,0,0.2,0c0.1,0,0.1,0,0.2,0c0.1,0,0.1,0,0.2,0c0.5,0,0.9-0.1,1.3-0.2
		c0.4-0.1,0.8-0.3,1.2-0.4c0.4-0.2,0.7-0.4,0.8-0.7c0.2-0.3,0.3-0.6,0.2-1c0-0.3-0.1-0.5-0.3-0.7C80.7,30,80.4,29.8,80.2,29.7z
		 M78.8,31.5c-0.1,0.1-0.2,0.2-0.4,0.3c-0.2,0.1-0.4,0.1-0.5,0.2c-0.2,0-0.4,0.1-0.6,0.1c-0.1,0-0.2,0-0.3,0c-0.1,0-0.2,0-0.3,0
		c-0.1,0-0.2,0-0.3,0c-0.1,0-0.2,0-0.2,0c0,0,0,0,0,0l0,0c0,0,0,0,0,0c0,0,0,0,0-0.1c0,0,0-0.1,0-0.1c0,0,0-0.1,0-0.1
		c0,0,0-0.1,0-0.1c0-0.2,0.1-0.3,0.2-0.5c0.1-0.1,0.2-0.3,0.3-0.4c0.1-0.1,0.3-0.2,0.5-0.3c0.2-0.1,0.4-0.1,0.7-0.1
		c0.1,0,0.3,0,0.4,0c0.1,0,0.2,0.1,0.3,0.1c0.1,0.1,0.1,0.1,0.2,0.2c0,0.1,0.1,0.2,0.1,0.3C78.9,31.3,78.8,31.4,78.8,31.5z"/>
	<path id="XMLID_68_" class="st0" d="M90.6,31.5C90.6,31.4,90.6,31.4,90.6,31.5c0-0.1,0-0.1,0-0.1c0,0,0,0,0-0.1
		c0-0.2-0.1-0.5-0.2-0.7c-0.1-0.2-0.2-0.4-0.4-0.6c-0.2-0.2-0.4-0.3-0.7-0.4c-0.3-0.1-0.7-0.2-1.1-0.2c-0.4,0-0.8,0.1-1.2,0.2
		c-0.3,0.1-0.6,0.3-0.9,0.5c-0.2,0.2-0.5,0.4-0.6,0.7c-0.2,0.2-0.3,0.5-0.5,0.7c0,0.1-0.1,0.1-0.1,0.2c0,0.1-0.1,0.1-0.1,0.2
		c0,0.1-0.1,0.1-0.1,0.2c0,0.1,0,0.1-0.1,0.1l0-1.5c0-0.2-0.1-1-1.3-1l-0.8,0c-0.1,0-0.1,0-0.1,0c0,0-0.1,0-0.1,0c0,0,0,0-0.1,0.1
		c0,0,0,0.1,0,0.1l0,8.3c0,0,0,0.1,0,0.1c0,0,0,0,0.1,0.1c0,0,0,0,0.1,0c0,0,0.1,0,0.2,0l1.8,0c0.1,0,0.1,0,0.1,0c0,0,0.1,0,0.1,0
		c0,0,0,0,0.1-0.1c0,0,0-0.1,0-0.1l0-2.4c0.1,0,0.2,0.1,0.3,0.1c0.1,0,0.2,0,0.3,0.1c0.1,0,0.2,0,0.3,0c0.1,0,0.2,0,0.3,0
		c0,0,0,0,0,0c0,0,0,0,0,0c0,0,0,0,0,0c0,0,0,0,0,0c0,0,0,0,0.1,0c0,0,0.1,0,0.1,0c0.6,0,1.1-0.1,1.5-0.2c0.5-0.1,0.8-0.4,1.2-0.7
		c0.3-0.3,0.6-0.6,0.8-1c0.2-0.3,0.4-0.7,0.5-1c0-0.1,0-0.1,0-0.2c0-0.1,0-0.1,0-0.2c0,0,0-0.1,0-0.1c0-0.1,0-0.1,0-0.2
		c0-0.1,0-0.2,0-0.3c0-0.1,0-0.2,0-0.3c0,0,0-0.1,0-0.1C90.6,31.6,90.6,31.6,90.6,31.5C90.6,31.5,90.6,31.5,90.6,31.5z M88.2,31.7
		C88.2,31.7,88.2,31.7,88.2,31.7C88.2,31.7,88.2,31.7,88.2,31.7C88.2,31.7,88.2,31.8,88.2,31.7c0,0.1,0,0.1,0,0.1c0,0,0,0.1,0,0.1
		c0,0,0,0.1,0,0.1c0,0,0,0.1,0,0.1c0,0,0,0.1,0,0.1c0,0,0,0,0,0.1c0,0,0,0,0,0.1c0,0.1,0,0.1,0,0.1c0,0,0,0.1,0,0.1
		c0,0.3-0.1,0.5-0.2,0.8c-0.1,0.2-0.2,0.5-0.4,0.7c-0.2,0.2-0.4,0.4-0.7,0.5c-0.3,0.1-0.7,0.2-1.1,0.2c0,0,0,0-0.1,0c0,0,0,0,0,0
		c0,0,0,0,0,0s0,0,0,0c0,0,0,0,0,0c0,0,0,0,0,0c0,0,0,0,0,0c0,0,0,0,0,0c-0.1,0-0.1,0-0.2,0c-0.1,0-0.1,0-0.2,0c-0.1,0-0.1,0-0.2,0
		c0,0-0.1,0-0.1,0c0,0,0,0,0,0l0,0c0,0,0,0,0,0c0-0.3,0.1-0.6,0.2-0.8c0.1-0.3,0.2-0.5,0.4-0.8c0.1-0.2,0.3-0.5,0.5-0.7
		c0.2-0.2,0.4-0.5,0.6-0.7c0,0,0,0,0,0c0,0,0,0,0,0c0,0,0,0,0-0.1c0,0,0,0,0.1,0c0.1-0.1,0.1-0.1,0.2-0.2c0.1,0,0.1-0.1,0.2-0.1
		c0.1,0,0.2-0.1,0.3-0.1c0.1,0,0.2,0,0.3,0c0.1,0,0.2,0,0.3,0c0.1,0,0.1,0.1,0.2,0.1c0,0.1,0.1,0.1,0.1,0.2
		C88.2,31.5,88.2,31.5,88.2,31.7C88.2,31.6,88.2,31.6,88.2,31.7C88.2,31.6,88.2,31.7,88.2,31.7C88.2,31.7,88.2,31.7,88.2,31.7z"/>
	<path id="XMLID_24_" class="st0" d="M20.6,19.8c-1.7,0-3.1-1.4-3.1-3.1c0-1.7,1.4-3.1,3.1-3.1c1.7,0,3.1,1.4,3.1,3.1
		C23.7,18.4,22.3,19.8,20.6,19.8z"/>
	<path id="XMLID_23_" class="st0" d="M17.9,36.8l0-1C17.9,35.8,18,36.2,17.9,36.8z"/>
	<path id="XMLID_22_" class="st0" d="M17.9,40.3c0,0-0.7,0-1.8-0.2C16.7,40.2,17.3,40.3,17.9,40.3z"/>
	<path id="XMLID_21_" class="st0" d="M26.7,8.3c4.1,1.6,7.2,4.6,9.1,8.3c-1.7-4.6-5.2-8.4-10-10.3c-8.9-3.5-18.9,1-22.4,10.1
		C1.6,21.3,2,26.5,4.2,30.9C2.8,27,2.7,22.6,4.3,18.4C7.7,9.3,17.8,4.8,26.7,8.3z"/>
	<path id="XMLID_20_" class="st0" d="M31.5,6.7c3.9,2.9,6.4,7.1,7.3,11.6c-0.5-5.4-3.1-10.6-7.7-14C22.7-2.1,10.7-0.3,4.4,8.4
		C1,13.1,0,18.8,1.1,24.1c-0.4-4.6,0.8-9.3,3.7-13.3C11,2.2,23,0.3,31.5,6.7z"/>
	<path id="XMLID_19_" class="st0" d="M22.2,10.4c3.7,0,7,1.4,9.4,3.8c-2.8-3.2-6.9-5.2-11.4-5.2c-8.5,0-15.5,7.1-15.5,15.8
		c0,4.8,2.1,9.1,5.4,12c0.1,0,1.5,1.2,3.5,2.2c0.4,0.2,0.7,0.4,1.1,0.5c1.5-0.4,2-2.6,2.1-4c-0.6-0.2-1.3-0.4-1.8-0.7
		c-0.6-0.4-1.1-0.7-1.4-0.9c0,0,0,0,0,0c0,0,0,0-0.1,0c-3-2.4-4.9-6.1-4.9-10.2C8.7,16.3,14.8,10.4,22.2,10.4z"/>
	<path id="XMLID_18_" class="st0" d="M23.7,35.8V25.4c0-1.6-1.3-2.9-2.9-2.9c-1.6,0-2.9,1.3-2.9,2.9v9.9c0,0,0,0.4,0,1v0
		c0,0-0.1,2.5-1.7,3.8c0.3,0.1,0.6,0.2,0.9,0.2c1,0.2,1.8,0.2,1.8,0.2C23.7,40.5,23.7,35.8,23.7,35.8z"/>
	<g id="XMLID_39_">
		<path id="XMLID_56_" class="st0" d="M59.8,23.5c0.2,0.2,0.4,0.5,0.4,0.8c0,0.3-0.1,0.6-0.4,0.8c-0.2,0.2-0.5,0.3-0.9,0.3
			c-0.4,0-0.7-0.1-0.9-0.3c-0.2-0.2-0.4-0.5-0.4-0.8c0-0.3,0.1-0.6,0.4-0.8c0.2-0.2,0.5-0.3,0.9-0.3C59.3,23.1,59.6,23.3,59.8,23.5z
			 M58.3,27.3v-1.4h0.7v0.9h2.6v0.6H58.3z M58.5,23.9c-0.1,0.1-0.2,0.3-0.2,0.4c0,0.2,0.1,0.3,0.2,0.4c0.1,0.1,0.2,0.2,0.4,0.2
			c0.2,0,0.3-0.1,0.4-0.2c0.1-0.1,0.2-0.3,0.2-0.4c0-0.2-0.1-0.3-0.2-0.4c-0.1-0.1-0.2-0.2-0.4-0.2C58.7,23.7,58.6,23.8,58.5,23.9z
			 M60.8,26.2v-3.1h0.6v3.1H60.8z"/>
		<path id="XMLID_53_" class="st0" d="M69.5,26.5c-0.1,0-0.3,0-0.4,0c-0.3,0-0.6,0-1,0c-0.4,0-0.6,0-0.6,0v-3.1h2V24h-1.4v0.7h1.3
			v0.6h-1.3V26c0,0,0.1,0,0.3,0c0.2,0,0.4,0,0.6,0c0.2,0,0.3,0,0.5,0c0.2,0,0.3,0,0.4,0v0.6C69.8,26.4,69.6,26.5,69.5,26.5z
			 M70.4,27.4v-2.2h-0.6v-0.6h0.6v-1.6H71v4.4H70.4z"/>
		<path id="XMLID_49_" class="st0" d="M76.8,26.9v-0.6H81v0.6H76.8z M77.1,25.8v-0.6h0.7l-0.1-1.1h0.7l0.1,1.1h0.9l0.1-1.1h0.7
			L80,25.2h0.7v0.6H77.1z M77.2,24v-0.6h3.4V24H77.2z"/>
		<path id="XMLID_43_" class="st0" d="M88,25.4c-0.2,0-0.4,0-0.6,0l-0.8,0v-1.3h1v-0.3h-1v-0.5h1.6v1.3h-1v0.3h0.4
			c0.2,0,0.3,0,0.5,0c0.1,0,0.3,0,0.4,0v0.5C88.4,25.3,88.2,25.4,88,25.4z M87.2,27.4v-1.7h0.7V26h1.9v-0.3h0.7v1.7H87.2z
			 M89.7,26.5h-1.9v0.3h1.9V26.5z M88.8,25.5v-1h-0.5V24h0.5v-0.8h0.6v2.3H88.8z M89.8,25.5v-2.4h0.6v2.4H89.8z"/>
		<rect id="XMLID_3_" x="64.3" y="23.1" class="st0" width="0.5" height="4.3"/>
		<rect id="XMLID_2_" x="73.6" y="23.1" class="st0" width="0.5" height="4.3"/>
		<rect id="XMLID_1_" x="83.5" y="23.1" class="st0" width="0.5" height="4.3"/>
	</g>
</g>
</svg>
